<?xml version="1.0" encoding="utf-8"?>
<!-- Generator: Adobe Illustrator 19.0.0, SVG Export Plug-In . SVG Version: 6.00 Build 0)  -->
<svg version="1.1" id="Layer_1" xmlns="http://www.w3.org/2000/svg" xmlns:xlink="http://www.w3.org/1999/xlink" x="0px" y="0px"
	 width="91px" height="91px" viewBox="-434 235 91 91" style="enable-background:new -434 235 91 91;" xml:space="preserve">
<style type="text/css">
	.st0{fill:#4E4E4E;}
</style>
<g>
	<path class="st0" d="M-388.5,258.5c-12.1,0-22,9.9-22,22s9.9,22,22,22s22-9.9,22-22S-376.4,258.5-388.5,258.5z M-388.5,294.5
		c-7.7,0-14-6.3-14-14s6.3-14,14-14s14,6.3,14,14S-380.8,294.5-388.5,294.5z"/>
	<path class="st0" d="M-388.5,251.2c2.2,0,4-1.8,4-4v-8.1c0-2.2-1.8-4-4-4s-4,1.8-4,4v8.1C-392.5,249.5-390.7,251.2-388.5,251.2z"/>
	<path class="st0" d="M-347.1,276.5h-8.1c-2.2,0-4,1.8-4,4s1.8,4,4,4h8.1c2.2,0,4-1.8,4-4S-344.9,276.5-347.1,276.5z"/>
	<path class="st0" d="M-388.5,309.8c-2.2,0-4,1.8-4,4v8.1c0,2.2,1.8,4,4,4s4-1.8,4-4v-8.1C-384.5,311.5-386.3,309.8-388.5,309.8z"/>
	<path class="st0" d="M-417.8,280.5c0-2.2-1.8-4-4-4h-8.1c-2.2,0-4,1.8-4,4s1.8,4,4,4h8.1C-419.5,284.5-417.8,282.7-417.8,280.5z"/>
	<path class="st0" d="M-365,261c1,0,2-0.4,2.8-1.2l5.8-5.8c1.6-1.6,1.6-4.1,0-5.7c-1.6-1.6-4.1-1.6-5.7,0l-5.8,5.8
		c-1.6,1.6-1.6,4.1,0,5.7C-367,260.6-366,261-365,261z"/>
	<path class="st0" d="M-362.2,301.2c-1.6-1.6-4.1-1.6-5.7,0c-1.6,1.6-1.6,4.1,0,5.7l5.8,5.8c0.8,0.8,1.8,1.2,2.8,1.2s2-0.4,2.8-1.2
		c1.6-1.6,1.6-4.1,0-5.7L-362.2,301.2z"/>
	<path class="st0" d="M-414.8,301.2l-5.8,5.8c-1.6,1.6-1.6,4.1,0,5.7c0.8,0.8,1.8,1.2,2.8,1.2s2-0.4,2.8-1.2l5.8-5.8
		c1.6-1.6,1.6-4.1,0-5.7C-410.7,299.6-413.3,299.6-414.8,301.2z"/>
	<path class="st0" d="M-414.8,259.8c0.7,0.8,1.8,1.2,2.8,1.2s2-0.4,2.8-1.2c1.6-1.6,1.6-4.1,0-5.7l-5.8-5.8c-1.6-1.6-4.1-1.6-5.7,0
		c-1.6,1.6-1.6,4.1,0,5.7L-414.8,259.8z"/>
</g>
</svg>
