<?xml version="1.0" encoding="utf-8"?>
<!-- Generator: Adobe Illustrator 19.0.0, SVG Export Plug-In . SVG Version: 6.00 Build 0)  -->
<svg version="1.1" id="Layer_1" xmlns="http://www.w3.org/2000/svg" xmlns:xlink="http://www.w3.org/1999/xlink" x="0px" y="0px"
	 width="91px" height="91px" viewBox="-434 235 91 91" style="enable-background:new -434 235 91 91;" xml:space="preserve">
<style type="text/css">
	.st0{fill:#4E4E4E;}
</style>
<g>
	<path class="st0" d="M-371.2,263.4h-1.1c-0.4-1.6-1-3.4-2-5.3c-3.3-6.2-9.2-9.6-16.5-9.6c-7.4,0-13.3,3.4-16.5,9.6
		c-1,2-1.6,4-2,5.6c-7.8,1.4-13.2,7.6-13.2,15.7c0,4.4,1.7,8.4,4.7,11.4c1.6,1.5,4.1,1.5,5.7-0.1c1.5-1.6,1.5-4.1-0.1-5.7
		c-1.5-1.5-2.3-3.5-2.3-5.7c0-4.8,3.5-8,8.7-8c2.2,0,3.9-1.7,4-3.9c0-1.1,0.6-11.1,10.9-11.1c4.4,0,7.5,1.7,9.4,5.1
		c1.6,2.9,1.8,6,1.8,6c0.1,2.1,1.9,3.8,4,3.8h4.5c5.2,0,8.7,3.2,8.7,8c0,3.5-2,6.3-5.3,7.5c-2.1,0.7-3.2,3-2.5,5.1
		c0.6,1.7,2.1,2.7,3.8,2.7c0.4,0,0.9-0.1,1.3-0.2c6.5-2.2,10.6-8.1,10.6-15C-354.5,270.1-361.5,263.4-371.2,263.4z"/>
	<path class="st0" d="M-390.4,285.1c1.7,0,3-1.3,3-3v-2.8c0-1.7-1.3-3-3-3c-1.7,0-3,1.3-3,3v2.8
		C-393.4,283.8-392.1,285.1-390.4,285.1z"/>
	<path class="st0" d="M-390.4,290.4c-1.1,0-2.1,0.4-2.8,1.2c-0.7,0.7-1.2,1.8-1.2,2.8s0.4,2.1,1.2,2.8c0.7,0.8,1.8,1.2,2.8,1.2
		c1.1,0,2.1-0.4,2.8-1.2c0.8-0.7,1.2-1.8,1.2-2.8c0-1.1-0.4-2.1-1.2-2.8C-388.3,290.8-389.4,290.4-390.4,290.4z"/>
	<path class="st0" d="M-390.4,303.7c-1.7,0-3,1.3-3,3v2.8c0,1.7,1.3,3,3,3c1.7,0,3-1.3,3-3v-2.8C-387.4,305-388.7,303.7-390.4,303.7
		z"/>
	<path class="st0" d="M-378.8,284.2l-2.5,1.4c-1.4,0.8-1.9,2.7-1.1,4.1c0.6,1,1.6,1.5,2.6,1.5c0.5,0,1-0.1,1.5-0.4l2.5-1.4
		c1.4-0.8,1.9-2.7,1.1-4.1C-375.5,283.9-377.4,283.4-378.8,284.2z"/>
	<path class="st0" d="M-402.5,298l-2.5,1.4c-1.4,0.8-1.9,2.7-1.1,4.1c0.6,1,1.6,1.5,2.6,1.5c0.5,0,1-0.1,1.5-0.4l2.5-1.4
		c1.4-0.8,1.9-2.7,1.1-4.1C-399.3,297.6-401.1,297.1-402.5,298z"/>
	<path class="st0" d="M-375.8,299.4l-2.5-1.4c-1.4-0.8-3.3-0.3-4.1,1.1c-0.8,1.4-0.3,3.3,1.1,4.1l2.5,1.4c0.5,0.3,1,0.4,1.5,0.4
		c1,0,2-0.5,2.6-1.5C-373.9,302-374.4,300.2-375.8,299.4z"/>
	<path class="st0" d="M-405,289.4l2.5,1.4c0.5,0.3,1,0.4,1.5,0.4c1,0,2-0.5,2.6-1.5c0.8-1.4,0.3-3.3-1.1-4.1l-2.5-1.4
		c-1.4-0.8-3.3-0.3-4.1,1.1C-406.9,286.8-406.4,288.6-405,289.4z"/>
</g>
</svg>
