<?xml version="1.0" encoding="utf-8"?>
<!-- Generator: Adobe Illustrator 19.0.0, SVG Export Plug-In . SVG Version: 6.00 Build 0)  -->
<svg version="1.1" id="Layer_1" xmlns="http://www.w3.org/2000/svg" xmlns:xlink="http://www.w3.org/1999/xlink" x="0px" y="0px"
	 width="91px" height="91px" viewBox="-434 235 91 91" style="enable-background:new -434 235 91 91;" xml:space="preserve">
<style type="text/css">
	.st0{fill:#4E4E4E;}
</style>
<g>
	<path class="st0" d="M-371.2,264.5h-1.1c-0.4-1.6-1-3.4-2-5.3c-3.3-6.2-9.2-9.6-16.5-9.6c-7.4,0-13.3,3.4-16.5,9.6
		c-1,2-1.6,4-2,5.6c-7.8,1.4-13.2,7.6-13.2,15.7c0,7.5,4.9,13.7,12.3,15.5c2.1,0.5,4.3-0.8,4.8-3c0.5-2.1-0.8-4.3-3-4.8
		c-3.7-0.9-6.1-3.9-6.1-7.7c0-4.8,3.5-8,8.7-8c2.2,0,3.9-1.7,4-3.9c0-1.1,0.6-11.1,10.9-11.1c4.4,0,7.5,1.7,9.4,5.1
		c1.6,2.9,1.8,6,1.8,6c0.1,2.1,1.9,3.8,4,3.8h4.5c5.2,0,8.7,3.2,8.7,8c0,3.9-2.7,8-8.7,8c-2.2,0-4,1.8-4,4c0,2.2,1.8,4,4,4
		c9.5,0,16.7-6.9,16.7-16S-361.5,264.5-371.2,264.5z"/>
	<path class="st0" d="M-381.8,289.6h-4.4l5.5-7.7c0.3-0.5,0.4-1.1,0.1-1.6c-0.3-0.5-0.8-0.8-1.3-0.8h-11c-0.6,0-1.2,0.4-1.4,1
		l-6.1,15.8c-0.2,0.5-0.1,1,0.2,1.4c0.3,0.4,0.7,0.6,1.2,0.6l0,0h3.2l-4.2,11c-0.3,0.7,0,1.4,0.6,1.8c0.2,0.1,0.5,0.2,0.8,0.2
		c0.4,0,0.8-0.2,1.1-0.5l16.6-18.8c0.4-0.4,0.5-1.1,0.2-1.6C-381,289.9-381.3,289.6-381.8,289.6z"/>
</g>
</svg>
