<?xml version="1.0" encoding="utf-8"?>
<!-- Generator: Adobe Illustrator 19.0.0, SVG Export Plug-In . SVG Version: 6.00 Build 0)  -->
<svg version="1.1" id="Layer_1" xmlns="http://www.w3.org/2000/svg" xmlns:xlink="http://www.w3.org/1999/xlink" x="0px" y="0px"
	 width="91px" height="91px" viewBox="-434 235 91 91" style="enable-background:new -434 235 91 91;" xml:space="preserve">
<style type="text/css">
	.st0{fill:#808080;}
</style>
<g>
	<path class="st0" d="M-360.8,253.2c-3.4,0-6.7,1.4-9,3.9c-1.5,1.6-1.4,4.1,0.2,5.7c1.6,1.5,4.1,1.4,5.7-0.2
		c0.8-0.9,1.9-1.4,3.1-1.4c2.4,0,4.3,1.9,4.3,4.3s-1.9,4.3-4.3,4.3h-63.7c-2.2,0-4,1.8-4,4s1.8,4,4,4h63.7c6.8,0,12.3-5.5,12.3-12.3
		S-354,253.2-360.8,253.2z"/>
	<path class="st0" d="M-379,283.2h-45.5c-2.2,0-4,1.8-4,4s1.8,4,4,4h45.5c2.4,0,4.3,1.9,4.3,4.3s-1.9,4.3-4.3,4.3
		c-1.2,0-2.3-0.5-3.1-1.4c-1.5-1.6-4-1.7-5.7-0.2c-1.6,1.5-1.7,4-0.2,5.7c2.3,2.5,5.6,3.9,9,3.9c6.8,0,12.3-5.5,12.3-12.3
		C-366.8,288.7-372.3,283.2-379,283.2z"/>
</g>
</svg>
