<?xml version="1.0" encoding="utf-8"?>
<!-- Generator: Adobe Illustrator 19.0.0, SVG Export Plug-In . SVG Version: 6.00 Build 0)  -->
<svg version="1.1" id="Layer_1" xmlns="http://www.w3.org/2000/svg" xmlns:xlink="http://www.w3.org/1999/xlink" x="0px" y="0px"
	 width="91px" height="91px" viewBox="-434 235 91 91" style="enable-background:new -434 235 91 91;" xml:space="preserve">
<style type="text/css">
	.st0{fill:#4E4E4E;}
</style>
<g>
	<path class="st0" d="M-382.5,283.3h-1.1c-0.4-1.6-1-3.4-2-5.3c-3.3-6.2-9.2-9.6-16.5-9.6c-7.4,0-13.3,3.4-16.5,9.6
		c-1,2-1.6,4-2,5.6c-7.8,1.4-13.2,7.6-13.2,15.7c0,8.1,5.8,14.5,13.8,15.8c0.4,0.1,0.9,0.2,1.3,0.2h36.2c9.5,0,16.7-6.9,16.7-16
		C-365.8,290-372.8,283.3-382.5,283.3z M-382.5,307.3h-34.6c-6,0-8.7-4.1-8.7-8c0-4.8,3.5-8,8.7-8c2.2,0,3.9-1.7,4-3.9
		c0-1.1,0.6-11.1,10.9-11.1c4.4,0,7.5,1.7,9.4,5.1c1.6,2.9,1.8,6,1.8,6c0.1,2.1,1.9,3.8,4,3.8h4.5c5.2,0,8.7,3.2,8.7,8
		C-373.8,303.1-376.5,307.3-382.5,307.3z"/>
	<path class="st0" d="M-343.7,278.7c-0.6-0.9-1.7-1.4-2.7-1.3c-6.6,0.5-13-2.8-16.3-8.6c-3.3-5.7-3-12.9,0.7-18.4
		c0.6-0.9,0.7-2.1,0.2-3c-0.5-1-1.5-1.6-2.6-1.7c-4.6-0.2-9.2,0.9-13.3,3.3c-5.6,3.2-9.7,8.5-11.4,14.7c-0.4,1.6,0.5,3.3,2.1,3.7
		c1.6,0.4,3.2-0.5,3.7-2.1c1.3-4.7,4.4-8.7,8.6-11.1c1.6-0.9,3.3-1.6,5-2c-2.3,6.4-1.7,13.6,1.7,19.6c3.5,6,9.5,10.1,16.1,11.3
		c-1.2,1.3-2.7,2.4-4.2,3.4c-1.4,0.8-3,1.5-4.5,1.9c-1.6,0.4-2.6,2.1-2.1,3.7c0.4,1.3,1.6,2.2,2.9,2.2c0.3,0,0.5,0,0.8-0.1
		c2.1-0.6,4.1-1.4,6-2.5c4-2.3,7.3-5.7,9.5-9.9C-343.1,280.8-343.1,279.6-343.7,278.7z"/>
</g>
</svg>
