<?xml version="1.0" encoding="utf-8"?>
<!-- Generator: Adobe Illustrator 19.0.0, SVG Export Plug-In . SVG Version: 6.00 Build 0)  -->
<svg version="1.1" id="Layer_1" xmlns="http://www.w3.org/2000/svg" xmlns:xlink="http://www.w3.org/1999/xlink" x="0px" y="0px"
	 width="91px" height="91px" viewBox="-434 235 91 91" style="enable-background:new -434 235 91 91;" xml:space="preserve">
<style type="text/css">
	.st0{fill:#4E4E4E;}
</style>
<g>
	<path class="st0" d="M-415.3,267.1h47.8c2.2,0,4-1.8,4-4c0-2.2-1.8-4-4-4h-47.8c-2.2,0-4,1.8-4,4
		C-419.3,265.3-417.5,267.1-415.3,267.1z"/>
	<path class="st0" d="M-366,280.8c0-2.2-1.8-4-4-4h-59.9c-2.2,0-4,1.8-4,4c0,2.2,1.8,4,4,4h59.9C-367.8,284.8-366,283-366,280.8z"/>
	<path class="st0" d="M-347.1,294.4H-407c-2.2,0-4,1.8-4,4c0,2.2,1.8,4,4,4h59.9c2.2,0,4-1.8,4-4
		C-343.1,296.2-344.9,294.4-347.1,294.4z"/>
	<path class="st0" d="M-355.6,267.6h0.2c2.5,0,4.5-2,4.5-4.5s-2-4.5-4.5-4.5h-0.2c-2.5,0-4.5,2-4.5,4.5S-358.1,267.6-355.6,267.6z"
		/>
</g>
</svg>
