<?xml version="1.0" encoding="utf-8"?>
<!-- Generator: Adobe Illustrator 19.0.0, SVG Export Plug-In . SVG Version: 6.00 Build 0)  -->
<svg version="1.1" id="Layer_1" xmlns="http://www.w3.org/2000/svg" xmlns:xlink="http://www.w3.org/1999/xlink" x="0px" y="0px"
	 width="91px" height="91px" viewBox="-434 235 91 91" style="enable-background:new -434 235 91 91;" xml:space="preserve">
<style type="text/css">
	.st0{fill:#265C73;}
</style>
<g>
	<path class="st0" d="M-402.3,250.1c-2.1-0.6-4.3,0.7-4.9,2.8l-10.3,38.1c-0.6,2.1,0.7,4.3,2.8,4.9c0.4,0.1,0.7,0.1,1.1,0.1
		c1.8,0,3.4-1.2,3.9-3l10.2-38C-398.9,252.8-400.1,250.6-402.3,250.1z"/>
	<path class="st0" d="M-386.3,265.1c-2.1-0.6-4.3,0.7-4.9,2.8l-10.4,38.1c-0.6,2.1,0.7,4.3,2.8,4.9c0.4,0.1,0.7,0.1,1.1,0.1
		c1.8,0,3.4-1.2,3.9-3l10.3-38C-383,267.8-384.2,265.6-386.3,265.1z"/>
	<path class="st0" d="M-362.3,250.1c-2.1-0.6-4.3,0.7-4.9,2.8l-10.3,38.1c-0.6,2.1,0.7,4.3,2.8,4.9c0.4,0.1,0.7,0.1,1.1,0.1
		c1.8,0,3.4-1.2,3.9-3l10.2-38C-358.9,252.8-360.1,250.6-362.3,250.1z"/>
</g>
</svg>
