<?xml version="1.0" encoding="utf-8"?>
<!-- Generator: Adobe Illustrator 19.0.0, SVG Export Plug-In . SVG Version: 6.00 Build 0)  -->
<svg version="1.1" id="Layer_1" xmlns="http://www.w3.org/2000/svg" xmlns:xlink="http://www.w3.org/1999/xlink" x="0px" y="0px"
	 width="91px" height="91px" viewBox="-434 235 91 91" style="enable-background:new -434 235 91 91;" xml:space="preserve">
<style type="text/css">
	.st0{fill:#4E4E4E;}
</style>
<g>
	<path class="st0" d="M-371.2,261.7h-1.1c-0.4-1.6-1-3.4-2-5.3c-3.3-6.2-9.2-9.6-16.5-9.6c-7.4,0-13.3,3.4-16.5,9.6
		c-1,2-1.6,4-2,5.6c-7.8,1.4-13.2,7.6-13.2,15.7c0,5.2,2.5,10,6.6,12.9c1.8,1.3,4.3,0.9,5.6-0.9c1.3-1.8,0.9-4.3-0.9-5.6
		c-2-1.4-3.2-3.8-3.2-6.4c0-4.8,3.5-8,8.7-8c2.2,0,3.9-1.7,4-3.9c0-1.1,0.6-11.1,10.9-11.1c4.4,0,7.5,1.7,9.4,5.1
		c1.6,2.9,1.8,6,1.8,6c0.1,2.1,1.9,3.8,4,3.8h4.5c5.2,0,8.7,3.2,8.7,8c0,4-2.6,7-6.5,7.8c-2.2,0.4-3.6,2.5-3.2,4.7
		c0.4,1.9,2,3.2,3.9,3.2c0.3,0,0.5,0,0.8-0.1c7.7-1.5,13-7.9,13-15.7C-354.5,268.5-361.5,261.7-371.2,261.7z"/>
	<path class="st0" d="M-399.3,278.5c-1.9-0.5-3.8,0.6-4.3,2.5l-5.6,20.7c-0.5,1.9,0.6,3.8,2.5,4.3c0.3,0.1,0.6,0.1,0.9,0.1
		c1.5,0,3-1,3.4-2.6l5.6-20.7C-396.3,280.9-397.4,279-399.3,278.5z"/>
	<path class="st0" d="M-389.6,286.6c-1.9-0.5-3.8,0.6-4.3,2.5l-5.6,20.7c-0.5,1.9,0.6,3.8,2.5,4.3c0.3,0.1,0.6,0.1,0.9,0.1
		c1.5,0,3-1,3.4-2.6l5.6-20.7C-386.7,289.1-387.8,287.2-389.6,286.6z"/>
	<path class="st0" d="M-375.6,278.5c-1.9-0.5-3.8,0.6-4.3,2.5l-5.6,20.7c-0.5,1.9,0.6,3.8,2.5,4.3c0.3,0.1,0.6,0.1,0.9,0.1
		c1.5,0,3-1,3.4-2.6l5.6-20.7C-372.6,280.9-373.7,279-375.6,278.5z"/>
</g>
</svg>
