<?xml version="1.0" encoding="utf-8"?>
<!-- Generator: Adobe Illustrator 19.0.0, SVG Export Plug-In . SVG Version: 6.00 Build 0)  -->
<svg version="1.1" id="Layer_1" xmlns="http://www.w3.org/2000/svg" xmlns:xlink="http://www.w3.org/1999/xlink" x="0px" y="0px"
	 width="91px" height="91px" viewBox="-434 235 91 91" style="enable-background:new -434 235 91 91;" xml:space="preserve">
<style type="text/css">
	.st0{fill:#4E4E4E;}
</style>
<g>
	<path class="st0" d="M-371.2,262.1h-1.1c-0.4-1.6-1-3.4-2-5.3c-3.3-6.2-9.2-9.6-16.5-9.6c-7.4,0-13.3,3.4-16.5,9.6
		c-1,2-1.6,4-2,5.6c-7.8,1.4-13.2,7.6-13.2,15.7c0,5.2,2.5,10,6.6,12.9c1.8,1.3,4.3,0.9,5.6-0.9c1.3-1.8,0.9-4.3-0.9-5.6
		c-2-1.4-3.2-3.8-3.2-6.4c0-4.8,3.5-8,8.7-8c2.2,0,3.9-1.7,4-3.9c0-1.1,0.6-11.1,10.9-11.1c4.4,0,7.5,1.7,9.4,5.1
		c1.6,2.9,1.8,6,1.8,6c0.1,2.1,1.9,3.8,4,3.8h4.5c5.2,0,8.7,3.2,8.7,8c0,4-2.6,7-6.5,7.8c-2.2,0.4-3.6,2.5-3.2,4.7
		c0.4,1.9,2,3.2,3.9,3.2c0.3,0,0.5,0,0.8-0.1c7.7-1.5,13-7.9,13-15.7C-354.5,268.8-361.5,262.1-371.2,262.1z"/>
	<path class="st0" d="M-402.3,289.3c0.3,0.1,0.6,0.1,0.9,0.1c1.5,0,3-1,3.4-2.6l1.2-4.4c0.5-1.9-0.6-3.8-2.5-4.3
		c-1.9-0.5-3.8,0.6-4.3,2.5l-1.2,4.4C-405.2,286.9-404.1,288.8-402.3,289.3z"/>
	<path class="st0" d="M-375.6,278.2c-1.9-0.5-3.8,0.6-4.3,2.5l-1.2,4.4c-0.5,1.9,0.6,3.8,2.5,4.3c0.3,0.1,0.6,0.1,0.9,0.1
		c1.5,0,3-1,3.4-2.6l1.2-4.4C-372.6,280.6-373.7,278.7-375.6,278.2z"/>
	<path class="st0" d="M-389.6,286.3c-1.9-0.5-3.8,0.6-4.3,2.5l-1.2,4.4c-0.5,1.9,0.6,3.8,2.5,4.3c0.3,0.1,0.6,0.1,0.9,0.1
		c1.5,0,3-1,3.4-2.6l1.2-4.4C-386.6,288.7-387.8,286.8-389.6,286.3z"/>
	<path class="st0" d="M-403.6,294.4c-1.9-0.5-3.8,0.6-4.3,2.5l-1.2,4.4c-0.5,1.9,0.6,3.8,2.5,4.3c0.3,0.1,0.6,0.1,0.9,0.1
		c1.5,0,3-1,3.4-2.6l1.2-4.4C-400.7,296.9-401.8,294.9-403.6,294.4z"/>
	<path class="st0" d="M-380,294.4c-1.9-0.5-3.8,0.6-4.3,2.5l-1.2,4.4c-0.5,1.9,0.6,3.8,2.5,4.3c0.3,0.1,0.6,0.1,0.9,0.1
		c1.5,0,3-1,3.4-2.6l1.2-4.4C-377,296.9-378.1,294.9-380,294.4z"/>
	<path class="st0" d="M-394,302.6c-1.9-0.5-3.8,0.6-4.3,2.5l-1.2,4.4c-0.5,1.9,0.6,3.8,2.5,4.3c0.3,0.1,0.6,0.1,0.9,0.1
		c1.5,0,3-1,3.4-2.6l1.2-4.4C-391,305-392.1,303.1-394,302.6z"/>
</g>
</svg>
