<?xml version="1.0" encoding="utf-8"?>
<!-- Generator: Adobe Illustrator 19.0.0, SVG Export Plug-In . SVG Version: 6.00 Build 0)  -->
<svg version="1.1" id="Layer_1" xmlns="http://www.w3.org/2000/svg" xmlns:xlink="http://www.w3.org/1999/xlink" x="0px" y="0px"
	 width="91px" height="91px" viewBox="-434 235 91 91" style="enable-background:new -434 235 91 91;" xml:space="preserve">
<style type="text/css">
	.st0{fill:#BCAB29;}
</style>
<path class="st0" d="M-378.2,292.2v-44.5c0-5.7-4.6-10.2-10.2-10.2c-5.7,0-10.2,4.6-10.2,10.2v44.6c-4.4,3.2-7.1,8.4-7.1,14
	c0,9.6,7.8,17.4,17.4,17.4c9.6,0,17.4-7.8,17.4-17.4C-371.1,300.7-373.8,295.5-378.2,292.2z M-388.5,244.4c1.8,0,3.2,1.5,3.2,3.2
	v28.1h-6.5v-28C-391.7,245.9-390.3,244.4-388.5,244.4z"/>
</svg>
