<?xml version="1.0" encoding="utf-8"?>
<!-- Generator: Adobe Illustrator 19.0.0, SVG Export Plug-In . SVG Version: 6.00 Build 0)  -->
<svg version="1.1" id="Layer_1" xmlns="http://www.w3.org/2000/svg" xmlns:xlink="http://www.w3.org/1999/xlink" x="0px" y="0px"
	 width="91px" height="91px" viewBox="-434 235 91 91" style="enable-background:new -434 235 91 91;" xml:space="preserve">
<style type="text/css">
	.st0{fill:#4E4E4E;}
</style>
<g>
	<path class="st0" d="M-416.2,249.1h46.2c2.2,0,4-1.8,4-4c0-2.2-1.8-4-4-4h-46.2c-2.2,0-4,1.8-4,4
		C-420.2,247.3-418.4,249.1-416.2,249.1z"/>
	<path class="st0" d="M-369.7,262.8c0-2.2-1.8-4-4-4h-46c-2.2,0-4,1.8-4,4c0,2.2,1.8,4,4,4h46C-371.5,266.8-369.7,265-369.7,262.8z"
		/>
	<path class="st0" d="M-361.1,276.4h-40.8c-2.2,0-4,1.8-4,4c0,2.2,1.8,4,4,4h40.8c2.2,0,4-1.8,4-4
		C-357.1,278.2-358.9,276.4-361.1,276.4z"/>
	<path class="st0" d="M-357.9,240.6h-0.1c-2.5,0-4.5,2-4.5,4.5s2,4.5,4.5,4.5h0.2c2.5,0,4.5-2,4.5-4.5
		C-353.4,242.6-355.4,240.6-357.9,240.6z"/>
	<path class="st0" d="M-371.2,294.4h-23.6c-2.2,0-4,1.8-4,4c0,2.2,1.8,4,4,4h23.6c2.2,0,4-1.8,4-4
		C-367.2,296.2-369,294.4-371.2,294.4z"/>
	<path class="st0" d="M-387.5,312.4h-11.2c-2.2,0-4,1.8-4,4c0,2.2,1.8,4,4,4h11.2c2.2,0,4-1.8,4-4
		C-383.5,314.2-385.3,312.4-387.5,312.4z"/>
</g>
</svg>
